<svg xmlns="http://www.w3.org/2000/svg" viewBox="0 0 842.9 978.9" enable-background="new 0 0 842.9 978.9"><style type="text/css">.st0{fill:#666666;stroke:#000000;stroke-miterlimit:10;} .st1{fill:#FFFFFF;}</style><path class="st0" d="M.5-76.6h841.9v1190.6h-841.9z"/><path class="st1" d="M125.4 137.9v248.6h-72v61h72v445h83v-445h105v-61h-105v-248h119v-61h-128.4c-48.8.3-73.4 20.4-73.6 60.4zM684 382.5c-23.7 0-56.3 2.3-97.9 7-32.8 3.3-65.7 6.6-98.5 10v-322h-84v815h222c37.8 0 69.3-10.3 94.4-31 25.1-20.7 37.6-46.7 37.6-78v-344c0-38-24.5-57-73.6-57zm-10.4 390.7c0 38.9-23.1 58.4-69.2 58.4h-116.8v-380l186-4v325.6z"/></svg>